<?xml version="1.0" encoding="utf-8"?>
<!-- Generator: Adobe Illustrator 24.1.1, SVG Export Plug-In . SVG Version: 6.00 Build 0)  -->
<svg version="1.1" id="Capa_1" xmlns="http://www.w3.org/2000/svg" xmlns:xlink="http://www.w3.org/1999/xlink" x="0px" y="0px"
	 viewBox="0 0 511 511" style="enable-background:new 0 0 511 511;" xml:space="preserve">
<path d="M503.5,152H439v-0.5c0-13-10.5-23.5-23.5-23.5S392,138.5,392,151.5v0.5h-64.5c-4.1,0-7.5,3.4-7.5,7.5s3.4,7.5,7.5,7.5H384
	v8.5c0,0.2,0,0.3,0,0.5h-48.4l0,0H175.4l0,0H127c0-0.2,0-0.3,0-0.5V167h56.5c4.1,0,7.5-3.4,7.5-7.5s-3.4-7.5-7.5-7.5H119v-0.5
	c0-13-10.5-23.5-23.5-23.5S72,138.5,72,151.5v0.5H7.5c-4.1,0-7.5,3.4-7.5,7.5s3.4,7.5,7.5,7.5H64v8.5c0,17.4,14.1,31.5,31.5,31.5
	c11.7,0,22-6.5,27.4-16h47.2l7,21c1.8,5.3,4.5,10,8.1,13.9c-23.7,6.3-41.2,28-41.2,53.6v40c0,4.1,3.4,7.5,7.5,7.5h8
	c4.1,0,7.5-3.4,7.5-7.5s-3.4-7.5-7.5-7.5H159v-32.5c0-22.3,18.2-40.5,40.5-40.5h15.1h81.9h15.1c22.3,0,40.5,18.2,40.5,40.5V312h-0.5
	c-4.1,0-7.5,3.4-7.5,7.5s3.4,7.5,7.5,7.5h8c4.1,0,7.5-3.4,7.5-7.5v-40c0-25.6-17.5-47.3-41.2-53.6c3.5-3.9,6.3-8.6,8.1-13.9l7-21
	h47.2c5.4,9.5,15.7,16,27.4,16c17.4,0,31.5-14.1,31.5-31.5V167h56.5c4.1,0,7.5-3.4,7.5-7.5S507.6,152,503.5,152z M87,151.5
	c0-4.7,3.8-8.5,8.5-8.5s8.5,3.8,8.5,8.5v0.5H87V151.5z M95.5,192c-9.1,0-16.5-7.4-16.5-16.5V167h33v8.5
	C112,184.6,104.6,192,95.5,192z M319.7,207.2c-3.3,10-12.7,16.8-23.2,16.8h-81.9c-10.6,0-19.9-6.7-23.2-16.8L186,191h139.2
	L319.7,207.2z M407,151.5c0-4.7,3.8-8.5,8.5-8.5s8.5,3.8,8.5,8.5v0.5h-17V151.5z M432,175.5c0,9.1-7.4,16.5-16.5,16.5
	s-16.5-7.4-16.5-16.5V167h33V175.5z"/>
<path d="M325.5,256h-140c-5.2,0-9.5,4.3-9.5,9.5v108c0,5.2,4.3,9.5,9.5,9.5h140c5.2,0,9.5-4.3,9.5-9.5v-108
	C335,260.3,330.7,256,325.5,256z M320,368H191v-97h129V368z"/>
<g>
	<path d="M291.6,317.9c0-7.1-3.6-13.8-10.1-18.8c-6.3-4.9-14.7-7.5-23.6-7.5c-8.9,0-17.3,2.7-23.6,7.5c-6.5,5-10.1,11.6-10.1,18.8v2
		h4.3c-0.9,1.4-1.4,3-1.4,4.7s0.5,3.3,1.4,4.7h-4.3v8.7c0,4.8,3.9,8.7,8.7,8.7h50c4.8,0,8.7-3.9,8.7-8.7v-8.7h-4.3
		c0.9-1.4,1.4-3,1.4-4.7s-0.5-3.3-1.4-4.7h4.3L291.6,317.9L291.6,317.9z M262,329.3l9.4-9.4h6.3l-9.4,9.4H262z M256.4,329.3h-6.3
		l9.4-9.4h6.3L256.4,329.3z M244.4,329.3h-6.3l9.4-9.4h6.3L244.4,329.3z M233.3,328.5c-1.3-0.8-2.1-2.3-2.1-3.9
		c0-2.6,2.1-4.7,4.7-4.7h6.1L233.3,328.5z M287.6,337.9c0,2.6-2.1,4.7-4.7,4.7h-50c-2.6,0-4.7-2.1-4.7-4.7v-4.7h59.4V337.9z
		 M273.9,329.3l8.6-8.6c1.3,0.8,2.2,2.3,2.2,3.9c0,2.6-2.1,4.7-4.7,4.7H273.9z M228.4,315.9c1.3-11.4,14.1-20.3,29.6-20.3
		c15.5,0,28.2,8.9,29.6,20.3H228.4z"/>
</g>
</svg>
